<?xml version="1.0" standalone="no"?>
<!DOCTYPE svg PUBLIC "-//W3C//DTD SVG 20010904//EN"
 "http://www.w3.org/TR/2001/REC-SVG-20010904/DTD/svg10.dtd">
<svg version="1.0" xmlns="http://www.w3.org/2000/svg"
 width="512.000000pt" height="512.000000pt" viewBox="0 0 512.000000 512.000000"
 preserveAspectRatio="xMidYMid meet">
<metadata>
Created by potrace 1.11, written by Peter Selinger 2001-2013
</metadata>
<g transform="translate(0.000000,512.000000) scale(0.100000,-0.100000)"
fill="#000000" stroke="none">
<path d="M2368 4744 c-3 -3 -30 -7 -59 -9 -30 -3 -65 -6 -79 -9 -14 -2 -45 -7
-70 -11 -74 -11 -171 -35 -240 -58 -36 -11 -67 -22 -70 -22 -20 -3 -117 -39
-124 -46 -6 -5 -16 -9 -24 -9 -22 0 -276 -124 -315 -154 -19 -14 -39 -26 -45
-26 -7 0 -12 -4 -12 -8 0 -4 -15 -16 -32 -26 -56 -33 -189 -140 -282 -227
-180 -169 -349 -400 -459 -626 -36 -73 -63 -133 -61 -133 2 0 -7 -26 -20 -57
-62 -151 -115 -374 -133 -558 -9 -97 -11 -369 -3 -385 5 -9 5 -22 0 -30 -5 -8
-5 -17 -1 -20 5 -3 11 -30 14 -60 3 -30 8 -68 11 -85 3 -16 9 -46 13 -65 3
-19 7 -39 9 -45 1 -5 5 -23 8 -40 5 -28 25 -97 52 -181 41 -131 182 -433 205
-442 5 -2 9 -8 9 -13 0 -8 39 -72 63 -104 96 -127 185 -233 256 -303 95 -93
170 -162 177 -162 4 0 34 -24 58 -45 62 -57 348 -224 446 -260 19 -8 60 -23
90 -35 161 -62 319 -103 485 -125 22 -3 63 -8 90 -12 59 -8 372 -8 430 0 22 4
59 9 83 12 24 3 87 15 140 26 53 11 106 22 117 25 41 8 240 76 249 85 6 5 16
9 23 9 34 0 350 168 397 212 11 10 23 18 27 18 3 0 24 14 45 30 22 17 52 40
68 53 102 77 286 261 356 356 14 19 34 43 44 55 27 31 121 175 142 219 10 20
21 37 26 37 4 0 8 4 8 9 0 5 22 56 49 113 92 196 190 535 187 648 -1 16 1 30
4 30 3 0 8 17 10 38 7 58 5 392 -2 442 -4 25 -10 65 -13 90 -9 65 -31 174 -55
260 -11 41 -23 87 -26 103 -4 15 -11 30 -15 33 -5 3 -9 15 -9 28 0 12 -4 26
-8 31 -5 6 -19 37 -32 70 -39 99 -183 371 -210 395 -3 3 -17 21 -30 40 -100
148 -296 351 -455 470 -33 25 -68 52 -77 60 -78 65 -421 241 -518 265 -3 1
-12 5 -20 8 -22 9 -143 47 -165 51 -11 3 -52 11 -90 20 -111 24 -126 26 -190
32 -33 4 -68 10 -77 15 -10 6 -19 5 -23 -1 -4 -6 -13 -7 -23 -1 -18 9 -315 14
-324 5z"/>
</g>
</svg>
